<svg width="40" height="40" viewBox="0 0 40 40" fill="none" xmlns="http://www.w3.org/2000/svg">
<g id="place_black_24dp (1) 1" clip-path="url(#clip0_2_358)">
<path id="Vector" d="M19.7639 32.4917L20 32.7073L20.2361 32.4917C23.6245 29.3961 26.147 26.5403 27.8248 23.9572C29.5003 21.3776 30.35 19.044 30.35 16.9999C30.35 10.7612 25.7812 6.31659 20 6.31659C14.2189 6.31659 9.65002 10.7612 9.65002 16.9999C9.65002 19.044 10.4998 21.3776 12.1752 23.9572C13.853 26.5403 16.3756 29.3961 19.7639 32.4917ZM20 19.6499C18.36 19.6499 17.0167 18.3066 17.0167 16.6666C17.0167 15.0266 18.36 13.6833 20 13.6833C21.6401 13.6833 22.9834 15.0266 22.9834 16.6666C22.9834 18.3066 21.6401 19.6499 20 19.6499ZM20 3.68325C26.8176 3.68325 32.9834 8.90393 32.9834 16.9999C32.9834 19.6722 31.9082 22.6249 29.7083 25.868C27.547 29.0543 24.3142 32.4998 20 36.2058C15.6859 32.4998 12.4531 29.0543 10.2918 25.868C8.09187 22.6249 7.01669 19.6722 7.01669 16.9999C7.01669 8.90393 13.1824 3.68325 20 3.68325Z" fill="#5E5D5D" stroke="white" stroke-width="0.7"/>
</g>
<defs>
<clipPath id="clip0_2_358">
<rect width="40" height="40" fill="white"/>
</clipPath>
</defs>
</svg>
